<svg id="Capa_1" data-name="Capa 1" xmlns="http://www.w3.org/2000/svg" viewBox="0 0 336 96"><defs><style>.cls-1{fill:#fff;}</style></defs><title>Mesa de trabajo 1prospecta</title><path class="cls-1" d="M96.34,51.71c-13-.3-20-8.62-19.48-23.19.45-11.82,5-19.29,13.23-21.93,15.25-4.86,26.6,3.86,27.08,20.81.35,12.4-4.86,20.93-14.44,23.42A52,52,0,0,1,96.34,51.71Zm14.15-24.17c-.13-.95-.34-2.76-.65-4.55-1.38-8.21-5.3-11.82-12.73-11.77-7.23,0-11.81,4-12.77,11.87a49.3,49.3,0,0,0,.26,13.29c.92,6,5,9.11,11.06,9.56C104.91,46.63,110.51,40,110.49,27.54Z"/><path class="cls-1" d="M63,28.69l9.76,21.19c-4.22,2.06-6.89,2-8.31-2.4-1-3-2.18-5.93-3.4-8.84-2.56-6.16-5.11-7.65-12.6-7.08,0,5,0,10.15,0,15.25,0,2.26.12,4.37-3.18,4.37s-3.08-2.3-3.08-4.45c0-11.81.1-23.63,0-35.45,0-3.92,1.53-5.41,5.35-5.12,3,.23,6,0,9,.24,7.37.54,11.45,3.31,12.7,8.42C70.6,20.74,68.68,24.84,63,28.69Zm-14.24-17v14c4.76-.17,9.93,1.89,12.72-3.3,1.06-2,1.21-5.47.14-7.32C58.75,10.14,53.6,11.65,48.72,11.64Z"/><path class="cls-1" d="M327.65,50.48c-3.65,1.3-6,1-7.38-3.14-2.7-8-2.91-7.93-11.22-8a13.78,13.78,0,0,1-2.49,0c-5.72-1.14-8.3,1.4-9.53,6.93s-2.11,5.52-7.85,3.8l8.23-22.82c2.2-6.1,4.22-12.27,6.74-18.23a5.84,5.84,0,0,1,4.36-2.8c1.58-.06,4.19,1.12,4.67,2.39,5,13,9.62,26.2,14.31,39.35A9.45,9.45,0,0,1,327.65,50.48ZM301.27,33.66h14.39c-2.34-6.63-4.55-12.86-7.23-20.42Z"/><path class="cls-1" d="M12.38,34.59c0,4.17.26,8.48-.15,12.73-.13,1.37-2,2.56-3.12,3.84C8,49.91,6,48.67,6,47.39,5.72,35.25,5.85,23.11,5.78,11,5.77,7.67,7,6,10.5,6.19c3.65.2,7.31.07,11,.36,6.85.54,11.45,4.91,12,11.14.7,7.71-3.26,14.07-10.13,15.64C20,34.09,16.44,34.15,12.38,34.59Zm.21-5.82c5.27-.12,10.84,1.14,13-4.55A12.25,12.25,0,0,0,25.15,15c-2.72-4.82-7.87-3.44-12.56-3.18Z"/><path class="cls-1" d="M164.47,34.58V50c-5.58,2-6.26,1.57-6.27-3.61,0-11.64.07-23.28-.06-34.92,0-3.75,1.17-5.63,5.15-5.32,3.31.25,6.64.11,10,.38,7.7.6,11.89,4.63,12.4,11.69.55,7.76-3.4,13.63-10.63,15.21C171.8,34.14,168.43,34.18,164.47,34.58Zm.12-5.79c5.15-.2,10.79,1.36,13.06-4.3,1.13-2.81,1.12-7.17-.34-9.67-2.74-4.66-8-3.24-12.72-3.16Z"/><path class="cls-1" d="M200.76,11.5V24.8c4,0,7.81.1,11.59,0,3.61-.13,5,1.21,3.53,5.21h-15V45.61c4.91,0,9.69,0,14.47,0,2.1,0,4.5,0,3.88,2.88-.22,1-2.54,2.17-3.94,2.23-5.65.23-11.31,0-17,.06-2.76,0-3.84-1-3.82-3.82.09-12.31-.05-24.63.2-36.94,0-1.28,2-3.53,3.25-3.61a167.93,167.93,0,0,1,18-.06c1.14,0,2.2,1.71,3.3,2.62-1.13.85-2.22,2.35-3.4,2.42C211,11.66,206.13,11.5,200.76,11.5Z"/><path class="cls-1" d="M123.31,42.33a30,30,0,0,0,4.52,2A33.69,33.69,0,0,0,136,46c3.63,0,7-2,7.09-5.65.08-2.43-1.9-5.46-3.84-7.29-2.09-2-5.26-2.74-7.88-4.18-7.81-4.32-10.19-11.38-6.08-17.82,3.59-5.63,14.56-7.59,20.24-3.28,1.34,1,1.61,3.41,2.38,5.17l-1.09.92a58.41,58.41,0,0,0-6.27-2.32c-3.87-1-8-1.35-9.89,3.14s1.33,7,4.89,9c2.92,1.59,5.93,3,8.83,4.64C149,30.9,150.7,35.17,150,40.14c-.69,5.16-3.52,9.53-8.81,10.25a50.56,50.56,0,0,1-15.06-.73C122.72,49.06,121.6,46.2,123.31,42.33Z"/><path class="cls-1" d="M256.83,14.89c-4.29-1.24-8.12-2.85-12.08-3.36-5-.65-8.55,2.21-10.66,6.65a24.69,24.69,0,0,0-.92,19c2.5,7.55,9.74,10.66,17.3,7.61,2.12-.85,4.13-2,6.37-3.08,1.64,3.59.6,5.77-2.53,7.48C241.36,56.2,226.65,48.7,225.67,34a43,43,0,0,1,2.05-17C231.46,6.56,244.18,2.54,254,7.77,257.46,9.63,257.79,10.47,256.83,14.89Z"/><path class="cls-1" d="M273.22,11.47H260.84c-1.25-3.78-.41-5.38,3.4-5.33,8.47.13,16.95-.08,25.42.14,1.29,0,2.55,1.63,3.82,2.51-1.21.9-2.35,2.41-3.66,2.58-2.91.4-5.91.12-9.62.12v20c0,4.65.07,9.31,0,14,0,2.5.87,5.74-3.47,5.66-4.08-.07-3.1-3.16-3.11-5.45-.08-10.8,0-21.6-.05-32.41A16.21,16.21,0,0,0,273.22,11.47Z"/><path class="cls-1" d="M291.74,92.4l-2.25-2.55c-6.8,3.41-10.79,3.35-14-.21-3.61-4-3.92-14-.59-18.83,2.91-4.16,7.18-4.8,14.93-1.83,0-3.65-.12-7.06.08-10.45.05-.85,1.1-1.65,1.69-2.47.59.64,1.69,1.29,1.69,1.93,0,11.09-.12,22.18-.25,33.27C293.05,91.47,292.59,91.68,291.74,92.4Zm-1.92-11c0-2.16,0-2.83,0-3.49-.08-4.22-3.39-8-7.13-7.85-4.39.21-5.63,3.54-6.2,7.13-.28,1.77-.55,3.88.14,5.4,1.07,2.4,2.7,5.92,4.56,6.23,2.3.39,5.41-1.61,7.5-3.37C289.87,84.45,289.71,81.85,289.82,81.4Z"/><path class="cls-1" d="M311.5,79.71c0-8,4.23-12.82,11.3-12.92,6.87-.1,11.31,4.67,11.42,12.28.12,8.23-4.6,13.45-12.06,13.33C315.09,92.29,311.47,88,311.5,79.71Zm3.67-.37c-.07,6.35,2.39,9.73,7.23,9.87s8-3.51,8.09-9.29c.11-6-2.6-9.57-7.45-9.72C317.86,70.05,315.24,73.08,315.17,79.34Z"/><path class="cls-1" d="M261.4,90c-8.55,5.19-14.47,2.06-14.76-8.32-.11-4-.12-8,.08-12,0-.81,1.18-1.58,1.81-2.36.61.8,1.72,1.58,1.76,2.41.18,4.15.1,8.31.09,12.47,0,3.69,1.06,6.73,5.27,7.1,3,.25,6.87-3.89,6.93-7.19.1-4.8,0-9.61,0-14.41l1.24-.67c.77,1,2.18,1.93,2.21,2.94.21,6.48.16,13,.07,19.45,0,.85-.74,1.69-1.14,2.53Z"/><path class="cls-1" d="M222.13,71.16c-2.09-.36-4.2-1.07-6.26-1-1.18.06-3.11,1.36-3.23,2.3a5.2,5.2,0,0,0,1.76,4c1.65,1.31,4.25,1.51,5.69,2.94,1.71,1.7,3.85,4.4,3.55,6.31-.35,2.24-2.75,5-4.95,5.94-5.08,2.26-9.71.17-10.39-4.28,2.16.6,4.21,1.74,6.13,1.54s3.89-1.7,5.83-2.64c-1.12-1.64-1.95-3.62-3.42-4.83-1.75-1.43-4.74-1.71-5.93-3.38-1.33-1.85-2.47-5.81-1.49-6.92,1.9-2.17,5.22-3.55,8.18-4.16,1.6-.33,3.66,1.63,5.51,2.56Z"/><path class="cls-1" d="M241.73,91.08c-2.52.41-5.17,1.7-6.64.88a9.19,9.19,0,0,1-4.27-5.89c-.63-4.91-.2-9.94-.2-15l-3.55-1.2c1.34-2.92,2.48-5.5,3.76-8a1.84,1.84,0,0,1,1.59-.79,2.71,2.71,0,0,1,1.66,1.47,23.73,23.73,0,0,1,.32,4.13L241,67.79l.21,1.69L234.32,71c0,4.84-.49,10,.28,15C234.86,87.64,238.39,88.8,241.73,91.08Z"/><path class="cls-1" d="M196.28,77.44a6.79,6.79,0,1,1-13.58-.39,6.8,6.8,0,0,1,13.58.39Z"/><path class="cls-1" d="M161.12,77.36a6.73,6.73,0,0,1-6.59,6.72,6.8,6.8,0,0,1-6.9-6.94,6.75,6.75,0,0,1,13.49.22Z"/><path class="cls-1" d="M14.34,84.15A6.76,6.76,0,0,1,14,70.64a6.78,6.78,0,0,1,6.69,6.61A6.69,6.69,0,0,1,14.34,84.15Z"/><path class="cls-1" d="M55.78,77.37a6.74,6.74,0,0,1-6.52,6.76,6.63,6.63,0,0,1-6.75-6.51,6.71,6.71,0,0,1,6.74-7A6.78,6.78,0,0,1,55.78,77.37Z"/><path class="cls-1" d="M84.2,70.62A6.76,6.76,0,0,1,84,84.13a6.76,6.76,0,0,1,.22-13.51Z"/><path class="cls-1" d="M119.44,70.59a7.07,7.07,0,0,1,6.7,6.76,7.25,7.25,0,0,1-6.66,6.83,6.78,6.78,0,0,1-6.84-7A6.91,6.91,0,0,1,119.44,70.59Z"/><path class="cls-1" d="M303.16,67c.68,1.16,1.89,2.31,1.93,3.49q.29,9.18,0,18.36c0,1.1-1.32,2.15-2,3.22-.51-1-1.43-2.1-1.45-3.16-.13-7.08-.07-14.17-.07-21.25Z"/></svg>